<?xml version="1.0" encoding="utf-8"?>
<!-- Generator: Adobe Illustrator 22.0.1, SVG Export Plug-In . SVG Version: 6.00 Build 0)  -->
<!DOCTYPE svg PUBLIC "-//W3C//DTD SVG 1.0//EN" "http://www.w3.org/TR/2001/REC-SVG-20010904/DTD/svg10.dtd">
<svg version="1.0" id="European_Unione" xmlns="http://www.w3.org/2000/svg" xmlns:xlink="http://www.w3.org/1999/xlink" x="0px"
	 y="0px" width="81.6px" height="70.7px" viewBox="0 0 81.6 70.7" style="enable-background:new 0 0 81.6 70.7;"
	 xml:space="preserve">
<style type="text/css">
	.st0{fill-rule:evenodd;clip-rule:evenodd;fill:#A91F23;}
</style>
<path id="ESP" class="st0" d="M66.7,21.6c0.4,0.2,0.8,0.3,1.1,0.5c0.1,0.1,0.2,0.7,0.5,0.6c0.4-0.1,0.8-0.3,1.3-0.3
	c0.5,0,1.4,1.1,2,0.9c0.2-0.1,0-0.5,0.2-0.6c0.8-0.5,1.7-0.1,2.6,0.2h0.2c0.3,0.3,0.5,0.5,0.4,0.8c-0.1,0.4-0.8,0.3-1.1,0.6
	c-0.2,0.2,0.6,1.4,0.1,2.3c-0.3,0.6-2.5,1.5-3.2,1.7c-0.6,0.2-1.5,0.4-1.9,0.8c-0.3,0.2-0.8,1-1.3,1.1c-1.8,0.5-5,0.2-6.4,1.3
	c-0.4,0.3-1.1,0.6-1,1.1c0.2,0.4,1,0.3,0.9,0.7c0,0.2-1.6,0.5-1.7,0.6c-0.6,0.5-0.8,1.4-1.4,1.9c-1.5,1.5-3.4,3-4.4,5
	c-0.4,0.8,0.2,3.3,0.6,4c0.2,0.2,2.1,1.3,1.6,1.6c-0.4,0.3-1.3,0.4-1.6,0.7c-0.1,0.1-0.1,0.4-0.2,0.4c-0.1,0.1-0.3-0.1-0.4-0.1
	c-0.4,0.1-0.9,0.2-1.3,0.4c-0.2,0.2-0.1,0.5-0.3,0.7c-0.2,0.1-0.4-0.1-0.5,0c-0.2,0.3-0.1,0.7-0.2,0.9c-0.2,0.2-0.6,0-0.8,0.3
	c-0.2,0.3,0.1,0.8-0.1,1.1C50,51.9,49,50.7,49,52.4c0,0.4,0.8,0.6,0.7,1c-0.2,0.4-0.7,0.3-1.2,0.3c-0.3,0-0.5-0.3-0.8-0.3
	c-1.1-0.3-2.4,0.2-3.4,0.8c-1.6,1.1-1.6,3.1-3.3,4c-0.6,0.4-0.8-1.4-2.4-1c-0.3,0.1-0.5,0.5-0.8,0.6c-0.5,0.2-1.6-0.7-2.1-0.8
	c-0.6-0.2-1.3,0.2-2,0.1c-0.4-0.1-0.6-0.4-1-0.5c-0.7-0.3-3.8-0.7-4.4-0.6c-0.6,0.2-1,1-1.5,1.2c-0.8,0.3-1.9-0.6-3.1-0.1
	c-1,0.5-0.8,0.9-1.3,1.6c-0.1,0.1-0.4-0.3-0.6-0.1c-0.3,0.3-0.6,0.7-1,0.8c-0.2,0.1-0.2-0.3-0.3-0.4c-0.2-0.2-0.5-0.2-0.7-0.4
	c-0.2-0.3-0.3-0.6-0.5-0.8c-0.2-0.2-0.5,0-0.6-0.2c-0.4-0.4-0.9-2.1-1-2.6c0-0.1,0.8,0.7,0.7,0.3c0-0.2-0.3,0-0.4-0.1
	c-0.1-0.1,0.2-0.2,0.2-0.3c-0.2-0.9-1,0.2-0.9-1.4c0,0,2.1-1,1.6-1.1c-0.4-0.1-0.7,0.8-1.1,0.7c-0.4-0.1-0.2-0.7-0.4-1
	c-0.2-0.3-0.4-0.6-0.6-0.8l-1.4-1.4c0-0.1,0-0.1,0-0.1c-0.1,0.1-0.1,0.2-0.2,0.2c-0.3,0.1-0.5-0.4-0.7-0.5c-0.2-0.1-1.2-0.3-1.9-0.3
	c0.1-2.2-0.4-2.6,1.3-4.1c0.3-0.3,0.3-0.8,0.6-1c0.1-0.1,2.7-0.1,2.1-1.2c-0.2-0.3-0.7,0.2-1,0c-0.3-0.2-0.2-0.6-0.3-1
	c-0.1-0.3-0.1-0.7-0.3-1c-0.1-0.1-0.4,0-0.4-0.1c0.2-0.4,0.5-0.6,0.7-1c0.3-0.6-0.6-0.2,0.3-0.9c0.8-0.6,1.8-0.5,2-1.9
	c0-0.1-1-0.8-1.2-1.2c-0.3-0.7,0.1-1.8,0.1-1.9c-0.1-0.1-0.9-1.7-0.9-1.7c-0.1-0.1,0.2,0.1,0.3,0.1c0.5,0.2,0.8,0.2,1.3,0.3
	c1.2,0.3,1.5,0.4,2.1-0.8c0.7-1.5-0.1-1-0.2-2.1c-0.2-1,1.5-0.5,1.5-1.3c0.1-0.5-0.5-0.1-0.2-0.7c0.1-0.1,0.3-0.1,0.3-0.3
	c0.2-0.4,0.2-0.7,0.2-1.1c0.1-0.4,0.4-0.8,0.3-1.3l-0.5-1.3c0.2-0.2,0.5,0.2,0.7,0.1l1.1-1.2c0.8-0.4,2.3-0.5,2.7-1.6
	c0.3-1.1-1.1-1-1.4-1c-0.3-0.1,0.2-2.1,0-2.2c-1-0.5-1.2-0.1-2.4-0.5c-0.2-0.1-0.2-0.6-0.6-0.3c-0.1,0.1,0.1,0.4,0,0.5
	c-0.7,0.6-1.5-0.1-1.7-0.2c-0.2-0.1-0.5,0.2-0.6,0.1c-0.1-0.1,0.3-0.2,0.2-0.3c-0.1-0.2-0.3-0.3-0.5-0.3c-0.3-0.1-0.7,0.1-1,0
	c-0.1-0.1,0.1-0.2,0.1-0.3c0-0.1,0.1-0.3,0-0.2c-0.3,0.1-0.9,0.8-1.4,0.5c-1.3-0.9,1.2-1.1,0.6-1.7c-0.1-0.1-0.3,0-0.4-0.1
	c-0.1-0.1,0.2-0.3,0.1-0.4c-1-0.2-2.3,0.1-3.1,0.5c0.1-0.4-0.5-0.8-0.5-1.2c-0.1-0.2,0.3,0.2,0.4,0.1c0.1-0.1-0.1-0.3-0.1-0.4
	c0.1-0.5,0.9-0.3,1.3-0.6c0.1-0.1,0.3-0.3,0.2-0.3c-0.3,0.1-0.6,0.4-1,0.4c-0.3,0.1-0.4-0.4-0.2-0.6c0.3-0.2,1-0.1,1.1-0.4
	c0.1-0.3-0.7,0.1-1,0c-0.2-0.1-0.4-0.4-0.4-0.6c-0.1-0.5,0.5,0.2,0.5,0.1c0.1-0.2,0-0.5,0.2-0.7c0.2-0.3,0.6-0.3,0.7-0.6
	c0.3-2.6-1.9,0.4-2.3-2.2C11.5,6.5,13,7,13,6.7c0.1-0.2-0.4,0-0.6-0.1c-0.1-0.1,0.2-0.2,0.2-0.2c0.6-0.1,0.9,0.1,1.3,0
	c1.4-0.1,3.2-1.3,4.5-1.8c0.5-0.2,1-0.9,1.5-0.6c0.2,0.2-0.3,0.8-0.1,0.8c0.4,0.1,0.7-0.7,1.1-0.7c1.4,0,1.3,2.5,2.6,2.8
	c0.3,0.1,0.4-0.5,0.6-0.5C25.8,6.9,25,7,26.4,7.2c0.4,0.1,1.1-0.1,1.4-0.1c0.3,0.1,0.5,0.4,0.8,0.4c0.4,0,0.8-0.5,1.2-0.4
	c0.4,0.1,0.4,0.7,0.7,1c0.3,0.3,1-0.1,1.3,0.3c0.1,0.1-0.2,0.3-0.1,0.3c0.1,0.2,0.4-0.2,0.6-0.1c1.3,0.9,4.8,2.6,6.5,2.1
	c0.1-0.1,0.1-0.3,0.2-0.3c0.2-0.1,0.4,0,0.6,0c0.4,0.1,1.5-0.1,1.8,0.6c0,0.1-0.1,0.2-0.1,0.2c0.4,0.1,1.6,1.2,2,1.2
	c0.2,0-0.1-0.4,0-0.5c0.1-0.2,0.3-0.2,0.5-0.3c1.5-0.2,0.5-0.1,1.2,0.7c0.2,0.2,0.6-0.1,0.8,0.1c0.3,0.2,0.5,0.5,0.7,0.7
	c0.7,0.4,2.2,0.3,3.2,0.1c0.3,0.3,0.9,0.8,0.9,0.8c0.1,0.1,0.1-0.2,0.1-0.2c0.3,0.1,0.6,0.2,0.7,0.4c0.5,0.5-1.1,1.2-0.4,1.5
	c0.3,0.1,0.6-0.5,0.7-0.4c0.1,0.1-0.1,0.4,0,0.5c0.7,0.7,1.9,0.4,2.6,1c0.1,0.1,0.6,1.3,0.6,1.3c0.7,0.5,1.4-0.4,2.1,0.2
	c0.4,0.3,0.1,1,0.8,1c0.3,0.1,0.5-0.3,0.8-0.2c0.3,0.1,0.5,0.4,0.8,0.5c0.2,0,0.2-0.3,0.3-0.3c0.5-0.1,1,0.4,1.6,0.4
	c0,0-0.3-1.2,0.4-1.1c0.9,0.2,1.4,0.8,2,1.3c0.1,0.1,0.2,0,0.3,0c0.3,0.1,0.6,0.1,0.7,0.2c0.3,0.2,0.1,0.7,0.4,0.8v0.1
	C65.2,21.3,65.1,22.1,66.7,21.6L66.7,21.6z M20.7,60.7l0.4,1.5h1.2c0-0.2-0.1-0.3-0.1-0.4c-0.1-0.3-0.2-0.6-0.1-1
	c0.1-0.2,0.5-0.2,0.5-0.4C22.3,59.8,20.8,60.7,20.7,60.7L20.7,60.7L20.7,60.7z M34.3,67.1l0.8,0.5c0-0.5,0.1-1,0.1-1.4
	C35.1,65.8,34.6,66.8,34.3,67.1L34.3,67.1L34.3,67.1z M35.3,67.5l0.1-0.2C35.4,67.4,35.3,67.4,35.3,67.5
	C35.3,67.5,35.3,67.5,35.3,67.5L35.3,67.5z M72.6,39.8L72.6,39.8c-1.6,0.3-3.3,1-4.6,2c-0.1,0.1-0.2,0.2-0.1,0.2
	c0.3,0.2,0.7,0.4,1.1,0.4c0.2,0.1,0.5-0.3,0.7-0.1c0.3,0.2,0.2,0.7,0.3,1.1c0.3,0.8,0.3-0.1,1.1,0.4c0.3,0.2,0.2,0.7,0.5,0.7
	c0.2,0.1,2.9-2.5,2.5-2.9C72.8,40.6,71.8,42.5,72.6,39.8L72.6,39.8z M78.1,39.8c-1.6-0.7-3.3-0.4-2,0.5c0.3,0.2,0.7-0.1,1.1,0.1
	C77.9,40.8,79.4,42.9,78.1,39.8L78.1,39.8z M68.7,44.8c-0.3,0.3-0.8,0.3-0.8,0.6c0,0.2,0.2,0.6,0.5,0.6c0.3,0,0.5,0,1-0.4
	c0.4-0.4,0-0.6,0-0.6L68.7,44.8L68.7,44.8L68.7,44.8z M67.5,43.2c-0.4,0.1-0.5,0.4-0.7,0.6c-0.2,0.3-0.5,0.8-0.1,1
	c0.3,0.2,1.1-0.3,1.2-0.6c0.1-0.3,0.4-0.3,0.4-0.6c0-0.3-0.4-0.5-0.4-0.5L67.5,43.2z"/>
</svg>
